<svg xmlns="http://www.w3.org/2000/svg" width="130" height="126" fill="none" viewBox="0 0 130 126">
  <path fill="#fff" stroke="#000" stroke-width="7" d="M65 122.187c33.84 0 61.5-26.445 61.5-59.343C126.5 29.944 98.84 3.5 65 3.5S3.5 29.945 3.5 62.843c0 32.899 27.66 59.344 61.5 59.344Z"/>
  <path fill="#000" d="M38.633 47.875V82h-6.867V47.875h6.867ZM49.32 62.383v5.672H36.898v-5.672H49.32Zm1.313-14.508v5.695H36.898v-5.695h13.735Zm17.508 0h6.023l6.961 23.344 6.938-23.344h5.32L83.68 82h-5.133L68.14 47.875Zm-2.438 0h5.742l.89 22.5V82h-6.632V47.875Zm25.055 0h5.765V82h-6.609V70.375l.844-22.5Z"/>
</svg>
